<svg width="16" height="16" viewBox="0 0 16 16" fill="none" xmlns="http://www.w3.org/2000/svg">
<g clip-path="url(#clip0_202_329)">
<path d="M13.6326 13.6329H11.2619V9.92025C11.2619 9.03494 11.2461 7.89525 10.0289 7.89525C8.79419 7.89525 8.60525 8.85988 8.60525 9.85581V13.6327H6.23463V5.99794H8.51044V7.04131H8.54232C8.77007 6.65188 9.09919 6.33151 9.49462 6.11432C9.89005 5.89714 10.337 5.79127 10.7878 5.808C13.1906 5.808 13.6336 7.3885 13.6336 9.44463L13.6326 13.6329ZM3.55963 4.95438C2.79982 4.9545 2.18375 4.33863 2.18363 3.57881C2.1835 2.819 2.79932 2.20294 3.55913 2.20281C4.31894 2.20263 4.935 2.8185 4.93513 3.57831C4.93519 3.94319 4.79032 4.29315 4.53236 4.55121C4.27441 4.80927 3.92451 4.95429 3.55963 4.95438ZM4.745 13.633H2.37182V5.99794H4.74494V13.6329L4.745 13.633ZM14.8145 0.00112635H1.18057C0.53619 -0.00612365 0.00775293 0.510064 -0.00012207 1.15444V14.8453C0.00750293 15.4899 0.535878 16.0066 1.1805 15.9999H14.8145C15.4605 16.0079 15.9909 15.4912 15.9999 14.8453V1.15338C15.9907 0.507751 15.4602 -0.00837365 14.8145 6.38463e-05" fill="#0A66C2"/>
</g>
<defs>
<clipPath id="clip0_202_329">
<rect width="16" height="16" fill="white"/>
</clipPath>
</defs>
</svg>
